<svg width="24" height="26" viewBox="0 0 24 26" fill="none" xmlns="http://www.w3.org/2000/svg">
<path d="M14.9791 7.45829L14.4706 8.48846C14.9621 8.76986 15.5717 8.60425 15.8805 8.10544L14.9791 7.45829ZM17.6874 3.08329L18.5888 3.73044C18.8834 3.25456 18.8142 2.61886 18.4254 2.22923L17.6874 3.08329ZM22.8333 11.2499L23.9142 11.1723C23.8762 10.5595 23.4036 10.0832 22.8332 10.0832L22.8333 11.2499ZM11.9999 11.2501V10.0834C11.7126 10.0834 11.4371 10.2063 11.2339 10.4251C11.0307 10.6439 10.9166 10.9407 10.9166 11.2501H11.9999ZM11.9999 15.3336H10.9166C10.9166 15.9779 11.4016 16.5002 11.9999 16.5002V15.3336ZM17.1458 15.3336H18.2291C18.2291 14.6892 17.7441 14.1669 17.1458 14.1669V15.3336ZM15.8805 8.10544L18.5888 3.73044L16.786 2.43614L14.0777 6.81114L15.8805 8.10544ZM17.6874 3.08329C18.4254 2.22923 18.425 2.22873 18.4244 2.22822C18.4242 2.22804 18.4237 2.22752 18.4234 2.22716C18.4227 2.22645 18.4219 2.22571 18.4211 2.22494C18.4196 2.2234 18.4179 2.22176 18.4161 2.22002C18.4126 2.21653 18.4086 2.21263 18.4041 2.20833C18.3952 2.19974 18.3844 2.18955 18.3718 2.17788C18.3465 2.15454 18.3138 2.1253 18.2733 2.09103C18.1924 2.02247 18.0806 1.9339 17.936 1.83245C17.6467 1.62936 17.2273 1.37564 16.6628 1.12789C15.5307 0.631088 13.8341 0.166626 11.4583 0.166626V2.49996C13.5654 2.49996 14.9834 2.9105 15.8451 3.2887C16.2775 3.47844 16.5749 3.66223 16.753 3.78727C16.8422 3.84987 16.9019 3.89802 16.934 3.92516C16.95 3.93875 16.9592 3.9471 16.9616 3.9494C16.9629 3.95055 16.9625 3.95018 16.9605 3.94821C16.9594 3.94723 16.958 3.94584 16.9561 3.94403C16.9552 3.94313 16.9542 3.94212 16.9531 3.94101C16.9525 3.94045 16.9519 3.93987 16.9513 3.93926C16.951 3.93895 16.9505 3.93848 16.9504 3.93833C16.9499 3.93785 16.9494 3.93736 17.6874 3.08329ZM11.4583 0.166626C8.91594 0.166626 6.09023 1.39248 3.9029 3.53221C1.69617 5.69091 0.083252 8.83578 0.083252 12.7082H2.24992C2.24992 9.58081 3.54135 7.03818 5.35974 5.25936C7.19745 3.46161 9.51757 2.49996 11.4583 2.49996V0.166626ZM0.083252 12.7082C0.083252 20.7003 6.03796 25.8334 11.9999 25.8334V23.5001C7.12855 23.5001 2.24992 19.3003 2.24992 12.7082H0.083252ZM22.8333 11.2499C22.8332 10.0832 22.8333 10.0832 22.8332 10.0832C22.8331 10.0832 22.8333 10.0832 22.8332 10.0832C22.833 10.0832 22.8324 10.0832 22.832 10.0832C22.8311 10.0832 22.8298 10.0832 22.8281 10.0832C22.8247 10.0832 22.8196 10.0832 22.8129 10.0832C22.7995 10.0832 22.7795 10.0832 22.7532 10.0832C22.7007 10.0832 22.6232 10.0832 22.5233 10.0832C22.3233 10.0833 22.0334 10.0833 21.6737 10.0833C20.9543 10.0833 19.9557 10.0834 18.8385 10.0834C16.6041 10.0834 13.8958 10.0835 11.9999 10.0834V12.4167C13.8958 12.4168 16.6041 12.4167 18.8385 12.4167C19.9557 12.4167 20.9544 12.4166 21.6738 12.4166C22.0335 12.4166 22.3234 12.4166 22.5233 12.4166H22.7533H22.813H22.8282H22.832H22.833C22.833 12.4166 22.8333 12.4166 22.8333 11.2499ZM10.9166 11.2501V15.3336H13.0833V11.2501H10.9166ZM11.9999 16.5002H17.1458V14.1669H11.9999V16.5002ZM16.0624 15.3336C16.0624 15.7402 15.7799 16.4606 15.023 17.1298C14.301 17.7681 13.2552 18.2503 11.9999 18.2503V20.5836C13.778 20.5836 15.3051 19.8992 16.3977 18.9333C17.4554 17.9982 18.2291 16.6769 18.2291 15.3336H16.0624ZM11.9999 18.2503C8.95727 18.2503 7.12492 15.4476 7.12492 12.7082H4.95825C4.95825 16.3856 7.45924 20.5836 11.9999 20.5836V18.2503ZM7.12492 12.7082C7.12492 10.1789 9.31553 7.7499 11.9999 7.7499V5.41657C8.18431 5.41657 4.95825 8.82096 4.95825 12.7082H7.12492ZM11.9999 7.7499C13.0834 7.7499 13.9745 8.20438 14.4706 8.48846L15.4876 6.42813C14.9004 6.09195 13.6248 5.41657 11.9999 5.41657V7.7499ZM11.9999 25.8334C15.0725 25.8334 18.749 24.4845 21.252 21.0063L19.5395 19.577C17.5187 22.385 14.5294 23.5001 11.9999 23.5001V25.8334ZM21.252 21.0063C22.8971 18.7203 24.2055 15.8784 23.9142 11.1723L21.7523 11.3275C22.0027 15.3718 20.9165 17.6634 19.5395 19.577L21.252 21.0063Z" fill="#4E4E4F"/>
</svg>
